<svg width="52" height="17" viewBox="0 0 52 17" fill="none" xmlns="http://www.w3.org/2000/svg">
<rect width="52" height="15" rx="3" fill="#F8ECD1"/>
<path d="M14.9972 5.90909H16.0866V13.517C16.0866 13.9541 16.0112 14.3326 15.8604 14.6527C15.7127 14.9728 15.488 15.2205 15.1864 15.396C14.8879 15.5714 14.5109 15.6591 14.0554 15.6591C14.0185 15.6591 13.9815 15.6591 13.9446 15.6591C13.9077 15.6591 13.8707 15.6591 13.8338 15.6591V14.6435C13.8707 14.6435 13.9046 14.6435 13.9354 14.6435C13.9661 14.6435 14 14.6435 14.0369 14.6435C14.3693 14.6435 14.6125 14.545 14.7663 14.348C14.9202 14.1541 14.9972 13.8771 14.9972 13.517V5.90909ZM15.5327 4.72727C15.3203 4.72727 15.1372 4.65495 14.9833 4.5103C14.8325 4.36565 14.7571 4.19176 14.7571 3.98864C14.7571 3.78551 14.8325 3.61162 14.9833 3.46697C15.1372 3.32232 15.3203 3.25 15.5327 3.25C15.745 3.25 15.9266 3.32232 16.0774 3.46697C16.2313 3.61162 16.3082 3.78551 16.3082 3.98864C16.3082 4.19176 16.2313 4.36565 16.0774 4.5103C15.9266 4.65495 15.745 4.72727 15.5327 4.72727ZM20.1688 13.1662C19.7194 13.1662 19.3116 13.0816 18.9454 12.9123C18.5792 12.7399 18.2883 12.4922 18.0729 12.169C17.8575 11.8428 17.7497 11.4489 17.7497 10.9872C17.7497 10.581 17.8298 10.2517 17.9898 9.99929C18.1498 9.74384 18.3637 9.5438 18.6315 9.39915C18.8992 9.2545 19.1947 9.14678 19.5178 9.07599C19.8441 9.00213 20.1718 8.94366 20.5012 8.90057C20.932 8.84517 21.2813 8.80362 21.5491 8.77592C21.8199 8.74515 22.0169 8.69437 22.14 8.62358C22.2662 8.55279 22.3293 8.42969 22.3293 8.25426V8.21733C22.3293 7.76184 22.2046 7.40791 21.9553 7.15554C21.7091 6.90317 21.3352 6.77699 20.8335 6.77699C20.3134 6.77699 19.9056 6.89086 19.6102 7.11861C19.3147 7.34635 19.107 7.58949 18.9869 7.84801L17.9529 7.47869C18.1375 7.04782 18.3837 6.71236 18.6915 6.4723C19.0023 6.22917 19.3409 6.0599 19.7071 5.96449C20.0764 5.866 20.4396 5.81676 20.7966 5.81676C21.0244 5.81676 21.286 5.84446 21.5814 5.89986C21.8799 5.95218 22.1677 6.06143 22.4447 6.22763C22.7248 6.39382 22.9571 6.64465 23.1418 6.98011C23.3264 7.31558 23.4188 7.76491 23.4188 8.32812V13H22.3293V12.0398H22.2739C22.2 12.1937 22.0769 12.3583 21.9046 12.5337C21.7322 12.7092 21.5029 12.8584 21.2167 12.9815C20.9305 13.1046 20.5812 13.1662 20.1688 13.1662ZM20.335 12.1875C20.7658 12.1875 21.129 12.1029 21.4244 11.9336C21.723 11.7643 21.9477 11.5458 22.0985 11.2781C22.2523 11.0103 22.3293 10.7287 22.3293 10.4332V9.43608C22.2831 9.49148 22.1816 9.54226 22.0246 9.58842C21.8707 9.63151 21.6922 9.66998 21.4891 9.70383C21.289 9.73461 21.0936 9.76231 20.9028 9.78693C20.7151 9.80848 20.5627 9.82694 20.4458 9.84233C20.1626 9.87926 19.8979 9.93928 19.6517 10.0224C19.4086 10.1024 19.2116 10.224 19.0608 10.3871C18.9131 10.5471 18.8392 10.7656 18.8392 11.0426C18.8392 11.4212 18.9793 11.7074 19.2593 11.9013C19.5425 12.0921 19.901 12.1875 20.335 12.1875ZM30.9517 5.90909L28.3295 13H27.2216L24.5994 5.90909H25.7812L27.7386 11.5597H27.8125L29.7699 5.90909H30.9517ZM34.2606 13.1662C33.8112 13.1662 33.4034 13.0816 33.0372 12.9123C32.671 12.7399 32.3801 12.4922 32.1647 12.169C31.9492 11.8428 31.8415 11.4489 31.8415 10.9872C31.8415 10.581 31.9215 10.2517 32.0816 9.99929C32.2416 9.74384 32.4555 9.5438 32.7233 9.39915C32.991 9.2545 33.2865 9.14678 33.6096 9.07599C33.9359 9.00213 34.2636 8.94366 34.593 8.90057C35.0238 8.84517 35.3731 8.80362 35.6409 8.77592C35.9117 8.74515 36.1087 8.69437 36.2318 8.62358C36.358 8.55279 36.4211 8.42969 36.4211 8.25426V8.21733C36.4211 7.76184 36.2964 7.40791 36.0471 7.15554C35.8009 6.90317 35.427 6.77699 34.9253 6.77699C34.4052 6.77699 33.9974 6.89086 33.702 7.11861C33.4065 7.34635 33.1988 7.58949 33.0787 7.84801L32.0447 7.47869C32.2293 7.04782 32.4755 6.71236 32.7833 6.4723C33.0941 6.22917 33.4327 6.0599 33.7989 5.96449C34.1682 5.866 34.5314 5.81676 34.8884 5.81676C35.1162 5.81676 35.3778 5.84446 35.6732 5.89986C35.9717 5.95218 36.2595 6.06143 36.5365 6.22763C36.8166 6.39382 37.0489 6.64465 37.2336 6.98011C37.4182 7.31558 37.5106 7.76491 37.5106 8.32812V13H36.4211V12.0398H36.3657C36.2918 12.1937 36.1687 12.3583 35.9964 12.5337C35.824 12.7092 35.5947 12.8584 35.3085 12.9815C35.0223 13.1046 34.673 13.1662 34.2606 13.1662ZM34.4268 12.1875C34.8576 12.1875 35.2208 12.1029 35.5162 11.9336C35.8148 11.7643 36.0394 11.5458 36.1903 11.2781C36.3441 11.0103 36.4211 10.7287 36.4211 10.4332V9.43608C36.3749 9.49148 36.2733 9.54226 36.1164 9.58842C35.9625 9.63151 35.784 9.66998 35.5809 9.70383C35.3808 9.73461 35.1854 9.76231 34.9946 9.78693C34.8068 9.80848 34.6545 9.82694 34.5376 9.84233C34.2544 9.87926 33.9897 9.93928 33.7435 10.0224C33.5004 10.1024 33.3034 10.224 33.1526 10.3871C33.0049 10.5471 32.931 10.7656 32.931 11.0426C32.931 11.4212 33.0711 11.7074 33.3511 11.9013C33.6343 12.0921 33.9928 12.1875 34.4268 12.1875Z" fill="#85586F"/>
</svg>
