<svg width="62" height="48" viewBox="0 0 62 48" fill="none" xmlns="http://www.w3.org/2000/svg">
<rect width="3" height="39" rx="1" fill="#F8ECD1"/>
<path d="M9.53267 17H8.33239L11.804 7.54545H12.9858L16.4574 17H15.2571L12.4318 9.04119H12.358L9.53267 17ZM9.97585 13.3068H14.8139V14.3224H9.97585V13.3068ZM18.8718 12.7344V17H17.7823V9.90909H18.8349V11.017H18.9272C19.0934 10.657 19.3458 10.3677 19.6843 10.1491C20.0228 9.92756 20.4599 9.81676 20.9954 9.81676C21.4755 9.81676 21.8956 9.91525 22.2557 10.1122C22.6158 10.3061 22.8958 10.6016 23.0959 10.9986C23.2959 11.3925 23.396 11.8911 23.396 12.4943V17H22.3065V12.5682C22.3065 12.0111 22.1618 11.5772 21.8725 11.2663C21.5832 10.9524 21.1862 10.7955 20.6815 10.7955C20.3337 10.7955 20.0228 10.8709 19.7489 11.0217C19.4781 11.1725 19.2642 11.3925 19.1072 11.6818C18.9503 11.9711 18.8718 12.322 18.8718 12.7344ZM27.4735 17.1662C27.0241 17.1662 26.6163 17.0816 26.2501 16.9123C25.8838 16.7399 25.593 16.4922 25.3776 16.169C25.1621 15.8428 25.0544 15.4489 25.0544 14.9872C25.0544 14.581 25.1344 14.2517 25.2945 13.9993C25.4545 13.7438 25.6684 13.5438 25.9362 13.3991C26.2039 13.2545 26.4994 13.1468 26.8225 13.076C27.1488 13.0021 27.4765 12.9437 27.8058 12.9006C28.2367 12.8452 28.586 12.8036 28.8538 12.7759C29.1246 12.7451 29.3216 12.6944 29.4447 12.6236C29.5709 12.5528 29.634 12.4297 29.634 12.2543V12.2173C29.634 11.7618 29.5093 11.4079 29.26 11.1555C29.0138 10.9032 28.6399 10.777 28.1382 10.777C27.6181 10.777 27.2103 10.8909 26.9149 11.1186C26.6194 11.3464 26.4117 11.5895 26.2916 11.848L25.2575 11.4787C25.4422 11.0478 25.6884 10.7124 25.9962 10.4723C26.307 10.2292 26.6456 10.0599 27.0118 9.96449C27.3811 9.866 27.7443 9.81676 28.1013 9.81676C28.329 9.81676 28.5906 9.84446 28.8861 9.89986C29.1846 9.95218 29.4724 10.0614 29.7494 10.2276C30.0294 10.3938 30.2618 10.6446 30.4465 10.9801C30.6311 11.3156 30.7235 11.7649 30.7235 12.3281V17H29.634V16.0398H29.5786C29.5047 16.1937 29.3816 16.3583 29.2093 16.5337C29.0369 16.7092 28.8076 16.8584 28.5214 16.9815C28.2352 17.1046 27.8859 17.1662 27.4735 17.1662ZM27.6396 16.1875C28.0705 16.1875 28.4337 16.1029 28.7291 15.9336C29.0277 15.7643 29.2523 15.5458 29.4031 15.2781C29.557 15.0103 29.634 14.7287 29.634 14.4332V13.4361C29.5878 13.4915 29.4862 13.5423 29.3293 13.5884C29.1754 13.6315 28.9969 13.67 28.7938 13.7038C28.5937 13.7346 28.3983 13.7623 28.2075 13.7869C28.0197 13.8085 27.8674 13.8269 27.7504 13.8423C27.4673 13.8793 27.2026 13.9393 26.9564 14.0224C26.7133 14.1024 26.5163 14.224 26.3655 14.3871C26.2178 14.5471 26.1439 14.7656 26.1439 15.0426C26.1439 15.4212 26.2839 15.7074 26.564 15.9013C26.8472 16.0921 27.2057 16.1875 27.6396 16.1875ZM16.7528 26.5H15.608C15.5402 26.1707 15.4218 25.8814 15.2525 25.6321C15.0863 25.3828 14.8832 25.1735 14.6431 25.0043C14.4061 24.8319 14.143 24.7027 13.8537 24.6165C13.5644 24.5303 13.2628 24.4872 12.9489 24.4872C12.3764 24.4872 11.8578 24.6319 11.3931 24.9212C10.9315 25.2105 10.5637 25.6367 10.2898 26.1999C10.0189 26.7631 9.88352 27.4541 9.88352 28.2727C9.88352 29.0914 10.0189 29.7823 10.2898 30.3455C10.5637 30.9087 10.9315 31.335 11.3931 31.6243C11.8578 31.9136 12.3764 32.0582 12.9489 32.0582C13.2628 32.0582 13.5644 32.0152 13.8537 31.929C14.143 31.8428 14.4061 31.7151 14.6431 31.5458C14.8832 31.3735 15.0863 31.1626 15.2525 30.9134C15.4218 30.661 15.5402 30.3717 15.608 30.0455H16.7528C16.6667 30.5286 16.5097 30.9611 16.282 31.3427C16.0542 31.7243 15.7711 32.049 15.4325 32.3168C15.094 32.5814 14.7139 32.783 14.2923 32.9215C13.8737 33.06 13.4259 33.1293 12.9489 33.1293C12.1425 33.1293 11.4254 32.9323 10.7976 32.5384C10.1697 32.1444 9.67578 31.5843 9.3157 30.858C8.95561 30.1316 8.77557 29.2699 8.77557 28.2727C8.77557 27.2756 8.95561 26.4138 9.3157 25.6875C9.67578 24.9612 10.1697 24.401 10.7976 24.0071C11.4254 23.6132 12.1425 23.4162 12.9489 23.4162C13.4259 23.4162 13.8737 23.4854 14.2923 23.6239C14.7139 23.7624 15.094 23.9656 15.4325 24.2333C15.7711 24.498 16.0542 24.8211 16.282 25.2028C16.5097 25.5813 16.6667 26.0137 16.7528 26.5ZM20.5418 33.1662C20.0925 33.1662 19.6847 33.0816 19.3184 32.9123C18.9522 32.7399 18.6614 32.4922 18.4459 32.169C18.2305 31.8428 18.1228 31.4489 18.1228 30.9872C18.1228 30.581 18.2028 30.2517 18.3628 29.9993C18.5229 29.7438 18.7368 29.5438 19.0045 29.3991C19.2723 29.2545 19.5677 29.1468 19.8909 29.076C20.2171 29.0021 20.5449 28.9437 20.8742 28.9006C21.3051 28.8452 21.6544 28.8036 21.9221 28.7759C22.193 28.7451 22.3899 28.6944 22.5131 28.6236C22.6392 28.5528 22.7023 28.4297 22.7023 28.2543V28.2173C22.7023 27.7618 22.5777 27.4079 22.3284 27.1555C22.0822 26.9032 21.7082 26.777 21.2066 26.777C20.6865 26.777 20.2787 26.8909 19.9832 27.1186C19.6878 27.3464 19.48 27.5895 19.36 27.848L18.3259 27.4787C18.5106 27.0478 18.7568 26.7124 19.0645 26.4723C19.3754 26.2292 19.7139 26.0599 20.0802 25.9645C20.4495 25.866 20.8126 25.8168 21.1697 25.8168C21.3974 25.8168 21.659 25.8445 21.9545 25.8999C22.253 25.9522 22.5407 26.0614 22.8177 26.2276C23.0978 26.3938 23.3302 26.6446 23.5148 26.9801C23.6995 27.3156 23.7918 27.7649 23.7918 28.3281V33H22.7023V32.0398H22.6469C22.5731 32.1937 22.45 32.3583 22.2776 32.5337C22.1053 32.7092 21.876 32.8584 21.5898 32.9815C21.3035 33.1046 20.9542 33.1662 20.5418 33.1662ZM20.708 32.1875C21.1389 32.1875 21.502 32.1029 21.7975 31.9336C22.096 31.7643 22.3207 31.5458 22.4715 31.2781C22.6254 31.0103 22.7023 30.7287 22.7023 30.4332V29.4361C22.6562 29.4915 22.5546 29.5423 22.3976 29.5884C22.2438 29.6315 22.0653 29.67 21.8621 29.7038C21.6621 29.7346 21.4666 29.7623 21.2758 29.7869C21.0881 29.8085 20.9358 29.8269 20.8188 29.8423C20.5357 29.8793 20.271 29.9393 20.0248 30.0224C19.7816 30.1024 19.5847 30.224 19.4339 30.3871C19.2861 30.5471 19.2123 30.7656 19.2123 31.0426C19.2123 31.4212 19.3523 31.7074 19.6324 31.9013C19.9155 32.0921 20.2741 32.1875 20.708 32.1875ZM25.7804 33V25.9091H26.8329V26.9801H26.9068C27.036 26.6293 27.2699 26.3446 27.6085 26.1261C27.947 25.9076 28.3287 25.7983 28.7534 25.7983C28.8334 25.7983 28.9334 25.7998 29.0534 25.8029C29.1735 25.806 29.2643 25.8106 29.3258 25.8168V26.9247C29.2889 26.9155 29.2042 26.9016 29.0719 26.8832C28.9426 26.8616 28.8057 26.8509 28.661 26.8509C28.3163 26.8509 28.0086 26.9232 27.7377 27.0678C27.47 27.2094 27.2576 27.4064 27.1007 27.6587C26.9468 27.908 26.8699 28.1927 26.8699 28.5128V33H25.7804ZM33.2821 33.1477C32.642 33.1477 32.0803 32.9954 31.5971 32.6907C31.117 32.386 30.7415 31.9598 30.4707 31.4119C30.2029 30.8641 30.0691 30.224 30.0691 29.4915C30.0691 28.7528 30.2029 28.1081 30.4707 27.5572C30.7415 27.0063 31.117 26.5785 31.5971 26.2738C32.0803 25.9691 32.642 25.8168 33.2821 25.8168C33.9223 25.8168 34.4824 25.9691 34.9625 26.2738C35.4457 26.5785 35.8212 27.0063 36.089 27.5572C36.3598 28.1081 36.4952 28.7528 36.4952 29.4915C36.4952 30.224 36.3598 30.8641 36.089 31.4119C35.8212 31.9598 35.4457 32.386 34.9625 32.6907C34.4824 32.9954 33.9223 33.1477 33.2821 33.1477ZM33.2821 32.169C33.7684 32.169 34.1685 32.0444 34.4824 31.7951C34.7963 31.5458 35.0287 31.218 35.1795 30.8118C35.3303 30.4055 35.4057 29.9654 35.4057 29.4915C35.4057 29.0175 35.3303 28.5759 35.1795 28.1665C35.0287 27.7572 34.7963 27.4264 34.4824 27.174C34.1685 26.9216 33.7684 26.7955 33.2821 26.7955C32.7959 26.7955 32.3958 26.9216 32.0819 27.174C31.7679 27.4264 31.5356 27.7572 31.3848 28.1665C31.234 28.5759 31.1586 29.0175 31.1586 29.4915C31.1586 29.9654 31.234 30.4055 31.3848 30.8118C31.5356 31.218 31.7679 31.5458 32.0819 31.7951C32.3958 32.0444 32.7959 32.169 33.2821 32.169ZM39.2478 23.5455V33H38.1583V23.5455H39.2478ZM41.2433 33V25.9091H42.3327V33H41.2433ZM41.7972 24.7273C41.5849 24.7273 41.4018 24.6549 41.2479 24.5103C41.0971 24.3656 41.0217 24.1918 41.0217 23.9886C41.0217 23.7855 41.0971 23.6116 41.2479 23.467C41.4018 23.3223 41.5849 23.25 41.7972 23.25C42.0096 23.25 42.1912 23.3223 42.342 23.467C42.4959 23.6116 42.5728 23.7855 42.5728 23.9886C42.5728 24.1918 42.4959 24.3656 42.342 24.5103C42.1912 24.6549 42.0096 24.7273 41.7972 24.7273ZM45.4177 28.7344V33H44.3282V25.9091H45.3808V27.017H45.4731C45.6393 26.657 45.8917 26.3677 46.2302 26.1491C46.5687 25.9276 47.0058 25.8168 47.5413 25.8168C48.0214 25.8168 48.4415 25.9152 48.8016 26.1122C49.1617 26.3061 49.4417 26.6016 49.6418 26.9986C49.8418 27.3925 49.9419 27.8911 49.9419 28.4943V33H48.8524V28.5682C48.8524 28.0111 48.7077 27.5772 48.4184 27.2663C48.1291 26.9524 47.7321 26.7955 47.2274 26.7955C46.8796 26.7955 46.5687 26.8709 46.2948 27.0217C46.024 27.1725 45.8101 27.3925 45.6531 27.6818C45.4962 27.9711 45.4177 28.322 45.4177 28.7344ZM54.9057 33.1477C54.2225 33.1477 53.6331 32.9969 53.1376 32.6953C52.6452 32.3906 52.2651 31.9659 51.9973 31.4212C51.7327 30.8733 51.6003 30.2363 51.6003 29.5099C51.6003 28.7836 51.7327 28.1435 51.9973 27.5895C52.2651 27.0324 52.6375 26.5985 53.1145 26.2876C53.5946 25.9737 54.1548 25.8168 54.7949 25.8168C55.1642 25.8168 55.5289 25.8783 55.889 26.0014C56.2491 26.1245 56.5769 26.3246 56.8723 26.6016C57.1678 26.8755 57.4032 27.2386 57.5787 27.6911C57.7541 28.1435 57.8418 28.7005 57.8418 29.3622V29.8239H52.3759V28.8821H56.7338C56.7338 28.482 56.6538 28.125 56.4938 27.8111C56.3368 27.4972 56.1122 27.2494 55.8198 27.0678C55.5305 26.8862 55.1889 26.7955 54.7949 26.7955C54.361 26.7955 53.9855 26.9032 53.6685 27.1186C53.3546 27.331 53.113 27.608 52.9437 27.9496C52.7744 28.2912 52.6898 28.6574 52.6898 29.0483V29.6761C52.6898 30.2116 52.7821 30.6656 52.9668 31.038C53.1545 31.4073 53.4146 31.6889 53.747 31.8828C54.0794 32.0736 54.4656 32.169 54.9057 32.169C55.1919 32.169 55.4505 32.129 55.6813 32.049C55.9152 31.9659 56.1168 31.8428 56.286 31.6797C56.4553 31.5135 56.5861 31.3073 56.6784 31.0611L57.731 31.3565C57.6202 31.7135 57.434 32.0275 57.1724 32.2983C56.9108 32.5661 56.5877 32.7753 56.2029 32.9261C55.8182 33.0739 55.3858 33.1477 54.9057 33.1477Z" fill="#85586F"/>
</svg>
